<svg xmlns="http://www.w3.org/2000/svg" xmlns:xlink="http://www.w3.org/1999/xlink" viewBox="0 0 28.02 27.98">
  <defs>
    <radialGradient id="9345d50a-2b4b-4285-bbc2-71df4d13a7bf" cx="733.17" cy="66.52" r="14" gradientTransform="translate(0 15.99) scale(1 0.85)" gradientUnits="userSpaceOnUse">
      <stop offset="0"/>
      <stop offset="1" stop-color="#1a1a1a"/>
    </radialGradient>
    <radialGradient id="f3f4e711-ea19-477b-89f3-ba62bb1bad5a" cx="733.16" cy="62.99" r="14" gradientTransform="translate(-719.16 -41.46) scale(1 0.85)" gradientUnits="userSpaceOnUse">
      <stop offset="0" stop-color="#4d4d4d"/>
      <stop offset="1" stop-color="#333"/>
    </radialGradient>
  </defs>
  <title>black-chip-horizontal</title>
  <g style="isolation: isolate">
    <g id="19c22188-e32b-4ee4-8dac-a4db94e2f5a3" data-name="Black Chip">
      <g>
        <g style="opacity: 0.5;mix-blend-mode: multiply">
          <path d="M747.16,73.54c0,6.57-6.27,11.9-14,11.9s-14-5.33-14-11.9c0-.2,0-2.2,0-2.4,0.37-6.29,6.49-9.5,14-9.5,7.27,0,13.32,3,14,9.08C747.2,71.09,747.16,73.15,747.16,73.54Z" transform="translate(-719.16 -57.45)"/>
        </g>
        <path d="M747.16,72.54c0,6.57-6.27,11.9-14,11.9s-14-5.33-14-11.9c0-.2,0-2.2,0-2.4,0.37-6.29,6.49-9.5,14-9.5,7.27,0,13.32,3,14,9.08C747.2,70.09,747.16,72.15,747.16,72.54Z" transform="translate(-719.16 -57.45)" style="fill: url(#9345d50a-2b4b-4285-bbc2-71df4d13a7bf)"/>
      </g>
      <path d="M733.16,64.89c-5,0-9,3.43-9,7.65s4,7.65,9,7.65,9-3.43,9-7.65S738.12,64.89,733.16,64.89Z" transform="translate(-719.16 -57.45)" style="fill: none;stroke: #000;stroke-miterlimit: 10;opacity: 0.3"/>
      <path d="M733.16,64.14a11.86,11.86,0,0,1,2.05.17l1.14-3.48a13.66,13.66,0,0,0-6.39,0l1.14,3.48A11.07,11.07,0,0,1,733.16,64.14Z" transform="translate(-719.16 -57.45)" style="fill: #fff"/>
      <path d="M724.61,68.34a8.8,8.8,0,0,1,1.2-1.43l-3-2.58a10.54,10.54,0,0,0-2,2.16A9.32,9.32,0,0,0,719.64,69l4.12,0.9A7.51,7.51,0,0,1,724.61,68.34Z" transform="translate(-719.16 -57.45)" style="fill: #fff"/>
      <path d="M720.8,75.3A15.86,15.86,0,0,1,719.63,73v3a9.32,9.32,0,0,0,1.21,2.54,10.54,10.54,0,0,0,2,2.16v-3A23.74,23.74,0,0,1,720.8,75.3Z" transform="translate(-719.16 -57.45)" style="fill: #d1d1d1"/>
      <path d="M733.13,81.41a28.22,28.22,0,0,1-3.17-.17v2.9a14,14,0,0,0,3.21.3,13.56,13.56,0,0,0,3.16-.3l0-2.9A27.47,27.47,0,0,1,733.13,81.41Z" transform="translate(-719.16 -57.45)" style="fill: #d1d1d1"/>
      <path d="M745.43,75.26a25.06,25.06,0,0,1-1.94,2.48v3a10.54,10.54,0,0,0,2-2.16A9.32,9.32,0,0,0,746.68,76V73A15.05,15.05,0,0,1,745.43,75.26Z" transform="translate(-719.16 -57.45)" style="fill: #d1d1d1"/>
      <path d="M741.71,68.34a8.05,8.05,0,0,1,.85,1.6l4.12-.9a9.32,9.32,0,0,0-1.21-2.54,10.54,10.54,0,0,0-2-2.16l-3,2.58A8.21,8.21,0,0,1,741.71,68.34Z" transform="translate(-719.16 -57.45)" style="fill: #fff"/>
      <g id="7ae08b2a-6f71-419d-95a4-3cbd82a019ba" data-name="Chips copy 2">
        <ellipse cx="14" cy="12.08" rx="14" ry="11.9" style="fill: url(#f3f4e711-ea19-477b-89f3-ba62bb1bad5a)"/>
        <path d="M733.16,61.89c-5,0-9,3.43-9,7.65s4,7.65,9,7.65,9-3.43,9-7.65S738.12,61.89,733.16,61.89Z" transform="translate(-719.16 -57.45)" style="fill: none;stroke: #000;stroke-miterlimit: 10;opacity: 0.3"/>
        <path d="M733.16,61.14a11.86,11.86,0,0,1,2.05.17l1.14-3.48a13.66,13.66,0,0,0-6.39,0l1.14,3.48A11.07,11.07,0,0,1,733.16,61.14Z" transform="translate(-719.16 -57.45)" style="fill: #fff"/>
        <path d="M724.61,65.34a8.8,8.8,0,0,1,1.2-1.43l-3-2.58a10.54,10.54,0,0,0-2,2.16A9.32,9.32,0,0,0,719.64,66l4.12,0.9A7.51,7.51,0,0,1,724.61,65.34Z" transform="translate(-719.16 -57.45)" style="fill: #fff"/>
        <path d="M724.61,73.73a8.05,8.05,0,0,1-.85-1.6l-4.12.9a9.32,9.32,0,0,0,1.21,2.54,10.54,10.54,0,0,0,2,2.16l3-2.58A8.21,8.21,0,0,1,724.61,73.73Z" transform="translate(-719.16 -57.45)" style="fill: #fff"/>
        <path d="M733.16,77.93a11.86,11.86,0,0,1-2.05-.17L730,81.24a13.66,13.66,0,0,0,6.39,0l-1.14-3.48A11.07,11.07,0,0,1,733.16,77.93Z" transform="translate(-719.16 -57.45)" style="fill: #fff"/>
        <path d="M741.71,73.73a8.8,8.8,0,0,1-1.2,1.43l3,2.58a10.54,10.54,0,0,0,2-2.16A9.32,9.32,0,0,0,746.68,73l-4.12-.9A7.51,7.51,0,0,1,741.71,73.73Z" transform="translate(-719.16 -57.45)" style="fill: #fff"/>
        <path d="M741.71,65.34a8.05,8.05,0,0,1,.85,1.6l4.12-.9a9.32,9.32,0,0,0-1.21-2.54,10.54,10.54,0,0,0-2-2.16l-3,2.58A8.21,8.21,0,0,1,741.71,65.34Z" transform="translate(-719.16 -57.45)" style="fill: #fff"/>
      </g>
    </g>
  </g>
</svg>
