<svg xmlns="http://www.w3.org/2000/svg" xmlns:xlink="http://www.w3.org/1999/xlink" viewBox="0 0 28.1 27.85">
  <defs>
    <radialGradient id="f5f3876e-c35f-440b-898c-933d7435a4d2" cx="666.97" cy="-102.43" r="14" gradientTransform="matrix(1, 0, 0, -0.85, 0, 164.84)" gradientUnits="userSpaceOnUse">
      <stop offset="0" stop-color="#00266c"/>
      <stop offset="1" stop-color="#002647"/>
    </radialGradient>
    <radialGradient id="176fd988-62fe-49d2-bcbf-3bfb412927b4" cx="666.96" cy="-105.96" r="14" gradientTransform="matrix(1, 0, 0, -1, -652.91, -91.06)" gradientUnits="userSpaceOnUse">
      <stop offset="0" stop-color="#0052db"/>
      <stop offset="1" stop-color="#002694"/>
    </radialGradient>
  </defs>
  <title>blue-chip-vertical</title>
  <g style="isolation: isolate">
    <g id="1170a49f-f85e-470c-aa6a-25eb8bcc9be0" data-name="Rack chips">
      <g id="c1e50aa4-f0da-4179-91b6-8c0c79927142" data-name="Blue chips 1">
        <g id="eff5963d-f030-464b-a2ad-ec6ab0abfff8" data-name="Blue Chip top">
          <g>
            <g style="opacity: 0.5;mix-blend-mode: multiply">
              <path d="M681,252.9c0-6.57-6.27-11.9-14-11.9s-14,5.33-14,11.9c0,0.2,0,2.2,0,2.4,0.37,6.29,6.49,9.5,14,9.5,7.27,0,13.32-3,14-9.08C681,255.34,681,253.29,681,252.9Z" transform="translate(-652.91 -240)"/>
            </g>
            <path d="M681,251.9c0-6.57-6.27-11.9-14-11.9s-14,5.33-14,11.9c0,0.2,0,2.2,0,2.4,0.37,6.29,6.49,9.5,14,9.5,7.27,0,13.32-3,14-9.08C681,254.34,681,252.29,681,251.9Z" transform="translate(-652.91 -240)" style="fill: url(#f5f3876e-c35f-440b-898c-933d7435a4d2)"/>
          </g>
          <path d="M667,259.55c-5,0-9-3.43-9-7.65s4-7.65,9-7.65,9,3.43,9,7.65S671.92,259.55,667,259.55Z" transform="translate(-652.91 -240)" style="fill: none;stroke: #000;stroke-miterlimit: 10;opacity: 0.3"/>
          <path d="M667,260.29a11.86,11.86,0,0,0,2.05-.17l1.14,3.48a13.66,13.66,0,0,1-6.39,0l1.14-3.48A11.07,11.07,0,0,0,667,260.29Z" transform="translate(-652.91 -240)" style="fill: #fff"/>
          <path d="M658.41,256.1a8.8,8.8,0,0,0,1.2,1.43l-3,2.58a10.54,10.54,0,0,1-2-2.16,9.32,9.32,0,0,1-1.21-2.54l4.12-.9A7.51,7.51,0,0,0,658.41,256.1Z" transform="translate(-652.91 -240)" style="fill: #fff"/>
          <path d="M654.6,249.13a15.86,15.86,0,0,0-1.17,2.27v-3a9.32,9.32,0,0,1,1.21-2.54,10.54,10.54,0,0,1,2-2.16v3A23.74,23.74,0,0,0,654.6,249.13Z" transform="translate(-652.91 -240)" style="fill: #d1d1d1"/>
          <path d="M666.93,243a28.22,28.22,0,0,0-3.17.17v-2.9A14,14,0,0,1,667,240a13.56,13.56,0,0,1,3.16.3l0,2.9A27.47,27.47,0,0,0,666.93,243Z" transform="translate(-652.91 -240)" style="fill: #d1d1d1"/>
          <path d="M679.23,249.18a25.06,25.06,0,0,0-1.94-2.48v-3a10.54,10.54,0,0,1,2,2.16,9.32,9.32,0,0,1,1.21,2.54v3A15.05,15.05,0,0,0,679.23,249.18Z" transform="translate(-652.91 -240)" style="fill: #d1d1d1"/>
          <path d="M675.51,256.1a8.05,8.05,0,0,0,.85-1.6l4.12,0.9a9.32,9.32,0,0,1-1.21,2.54,10.54,10.54,0,0,1-2,2.16l-3-2.58A8.21,8.21,0,0,0,675.51,256.1Z" transform="translate(-652.91 -240)" style="fill: #fff"/>
          <g id="34edca96-74b6-4811-9a0b-22da2c0effad" data-name="Chips copy 8">
            <g>
              <g style="opacity: 0.5">
                <ellipse cx="14.05" cy="15.9" rx="14" ry="11.9"/>
                <ellipse cx="14.05" cy="15.9" rx="14" ry="11.9" style="fill: none;stroke: #000;stroke-miterlimit: 10;stroke-width: 0.10000000149011612px"/>
              </g>
              <g>
                <ellipse cx="14.05" cy="14.9" rx="14" ry="11.9" style="fill: url(#176fd988-62fe-49d2-bcbf-3bfb412927b4)"/>
                <ellipse cx="14.05" cy="14.9" rx="14" ry="11.9" style="fill: none;stroke: #fff;stroke-miterlimit: 10;stroke-width: 0.10000000149011612px"/>
              </g>
            </g>
            <path d="M667,262.55c-5,0-9-3.43-9-7.65s4-7.65,9-7.65,9,3.43,9,7.65S671.92,262.55,667,262.55Z" transform="translate(-652.91 -240)" style="fill: none;stroke: #000;stroke-miterlimit: 10;opacity: 0.3"/>
            <path d="M667,263.29a11.86,11.86,0,0,0,2.05-.17l1.14,3.48a13.66,13.66,0,0,1-6.39,0l1.14-3.48A11.07,11.07,0,0,0,667,263.29Z" transform="translate(-652.91 -240)" style="fill: #fff"/>
            <path d="M658.41,259.1a8.8,8.8,0,0,0,1.2,1.43l-3,2.58a10.54,10.54,0,0,1-2-2.16,9.32,9.32,0,0,1-1.21-2.54l4.12-.9A7.51,7.51,0,0,0,658.41,259.1Z" transform="translate(-652.91 -240)" style="fill: #fff"/>
            <path d="M658.41,250.7a8.05,8.05,0,0,0-.85,1.6l-4.12-.9a9.32,9.32,0,0,1,1.21-2.54,10.54,10.54,0,0,1,2-2.16l3,2.58A8.21,8.21,0,0,0,658.41,250.7Z" transform="translate(-652.91 -240)" style="fill: #fff"/>
            <path d="M667,246.51a11.86,11.86,0,0,0-2.05.17l-1.14-3.48a13.66,13.66,0,0,1,6.39,0L669,246.68A11.07,11.07,0,0,0,667,246.51Z" transform="translate(-652.91 -240)" style="fill: #fff"/>
            <path d="M675.51,250.7a8.8,8.8,0,0,0-1.2-1.43l3-2.58a10.54,10.54,0,0,1,2,2.16,9.32,9.32,0,0,1,1.21,2.54l-4.12.9A7.51,7.51,0,0,0,675.51,250.7Z" transform="translate(-652.91 -240)" style="fill: #fff"/>
            <path d="M675.51,259.1a8.05,8.05,0,0,0,.85-1.6l4.12,0.9a9.32,9.32,0,0,1-1.21,2.54,10.54,10.54,0,0,1-2,2.16l-3-2.58A8.21,8.21,0,0,0,675.51,259.1Z" transform="translate(-652.91 -240)" style="fill: #fff"/>
          </g>
        </g>
      </g>
    </g>
  </g>
</svg>
