<svg xmlns="http://www.w3.org/2000/svg" xmlns:xlink="http://www.w3.org/1999/xlink" viewBox="0 0 28.02 27.98">
  <defs>
    <radialGradient id="8dfdb1d5-c464-4f02-9f90-d341fdbcc530" cx="732.7" cy="24.63" r="14" gradientTransform="translate(0 15.99) scale(1 0.85)" gradientUnits="userSpaceOnUse">
      <stop offset="0" stop-color="#00266c"/>
      <stop offset="1" stop-color="#002647"/>
    </radialGradient>
    <radialGradient id="b00f64c7-3c96-4b1d-a104-03ef5b8c59ca" cx="732.69" cy="21.1" r="14" gradientTransform="translate(-718.69 -5.85) scale(1 0.85)" gradientUnits="userSpaceOnUse">
      <stop offset="0" stop-color="#0052db"/>
      <stop offset="1" stop-color="#002694"/>
    </radialGradient>
  </defs>
  <title>blue-chip-horizontal</title>
  <g style="isolation: isolate">
    <g id="e06957a8-dbb2-4104-8172-0d35d296be29" data-name="Blue Chip">
      <g>
        <g style="opacity: 0.5;mix-blend-mode: multiply">
          <path d="M746.69,37.93c0,6.57-6.27,11.9-14,11.9s-14-5.33-14-11.9c0-.2,0-2.2,0-2.4,0.37-6.29,6.49-9.5,14-9.5,7.27,0,13.32,3,14,9.08C746.74,35.48,746.69,37.54,746.69,37.93Z" transform="translate(-718.69 -21.84)"/>
        </g>
        <path d="M746.69,36.93c0,6.57-6.27,11.9-14,11.9s-14-5.33-14-11.9c0-.2,0-2.2,0-2.4,0.37-6.29,6.49-9.5,14-9.5,7.27,0,13.32,3,14,9.08C746.74,34.48,746.69,36.54,746.69,36.93Z" transform="translate(-718.69 -21.84)" style="fill: url(#8dfdb1d5-c464-4f02-9f90-d341fdbcc530)"/>
      </g>
      <path d="M732.69,29.28c-5,0-9,3.43-9,7.65s4,7.65,9,7.65,9-3.43,9-7.65S737.65,29.28,732.69,29.28Z" transform="translate(-718.69 -21.84)" style="fill: none;stroke: #000;stroke-miterlimit: 10;opacity: 0.3"/>
      <path d="M732.69,28.53a11.86,11.86,0,0,1,2.05.17l1.14-3.48a13.66,13.66,0,0,0-6.39,0l1.14,3.48A11.07,11.07,0,0,1,732.69,28.53Z" transform="translate(-718.69 -21.84)" style="fill: #fff"/>
      <path d="M724.14,32.73a8.8,8.8,0,0,1,1.2-1.43l-3-2.58a10.54,10.54,0,0,0-2,2.16,9.32,9.32,0,0,0-1.21,2.54l4.12,0.9A7.51,7.51,0,0,1,724.14,32.73Z" transform="translate(-718.69 -21.84)" style="fill: #fff"/>
      <path d="M720.34,39.69a15.86,15.86,0,0,1-1.17-2.27v3A9.32,9.32,0,0,0,720.38,43a10.54,10.54,0,0,0,2,2.16v-3A23.74,23.74,0,0,1,720.34,39.69Z" transform="translate(-718.69 -21.84)" style="fill: #d1d1d1"/>
      <path d="M732.66,45.8a28.22,28.22,0,0,1-3.17-.17v2.9a14,14,0,0,0,3.21.3,13.56,13.56,0,0,0,3.16-.3l0-2.9A27.47,27.47,0,0,1,732.66,45.8Z" transform="translate(-718.69 -21.84)" style="fill: #d1d1d1"/>
      <path d="M745,39.65A25.06,25.06,0,0,1,743,42.13v3A10.54,10.54,0,0,0,745,43a9.32,9.32,0,0,0,1.21-2.54v-3A15.05,15.05,0,0,1,745,39.65Z" transform="translate(-718.69 -21.84)" style="fill: #d1d1d1"/>
      <path d="M741.24,32.73a8.05,8.05,0,0,1,.85,1.6l4.12-.9A9.32,9.32,0,0,0,745,30.88a10.54,10.54,0,0,0-2-2.16l-3,2.58A8.21,8.21,0,0,1,741.24,32.73Z" transform="translate(-718.69 -21.84)" style="fill: #fff"/>
      <g id="51128a88-b177-461b-8640-15e134ac613d" data-name="Chips copy 5">
        <ellipse cx="14" cy="12.08" rx="14" ry="11.9" style="fill: url(#b00f64c7-3c96-4b1d-a104-03ef5b8c59ca)"/>
        <path d="M732.69,26.28c-5,0-9,3.43-9,7.65s4,7.65,9,7.65,9-3.43,9-7.65S737.65,26.28,732.69,26.28Z" transform="translate(-718.69 -21.84)" style="fill: none;stroke: #000;stroke-miterlimit: 10;opacity: 0.3"/>
        <path d="M732.69,25.53a11.86,11.86,0,0,1,2.05.17l1.14-3.48a13.66,13.66,0,0,0-6.39,0l1.14,3.48A11.07,11.07,0,0,1,732.69,25.53Z" transform="translate(-718.69 -21.84)" style="fill: #fff"/>
        <path d="M724.14,29.73a8.8,8.8,0,0,1,1.2-1.43l-3-2.58a10.54,10.54,0,0,0-2,2.16,9.32,9.32,0,0,0-1.21,2.54l4.12,0.9A7.51,7.51,0,0,1,724.14,29.73Z" transform="translate(-718.69 -21.84)" style="fill: #fff"/>
        <path d="M724.14,38.12a8.05,8.05,0,0,1-.85-1.6l-4.12.9A9.32,9.32,0,0,0,720.38,40a10.54,10.54,0,0,0,2,2.16l3-2.58A8.21,8.21,0,0,1,724.14,38.12Z" transform="translate(-718.69 -21.84)" style="fill: #fff"/>
        <path d="M732.69,42.32a11.86,11.86,0,0,1-2.05-.17l-1.14,3.48a13.66,13.66,0,0,0,6.39,0l-1.14-3.48A11.07,11.07,0,0,1,732.69,42.32Z" transform="translate(-718.69 -21.84)" style="fill: #fff"/>
        <path d="M741.24,38.12a8.8,8.8,0,0,1-1.2,1.43l3,2.58A10.54,10.54,0,0,0,745,40a9.32,9.32,0,0,0,1.21-2.54l-4.12-.9A7.51,7.51,0,0,1,741.24,38.12Z" transform="translate(-718.69 -21.84)" style="fill: #fff"/>
        <path d="M741.24,29.73a8.05,8.05,0,0,1,.85,1.6l4.12-.9A9.32,9.32,0,0,0,745,27.88a10.54,10.54,0,0,0-2-2.16l-3,2.58A8.21,8.21,0,0,1,741.24,29.73Z" transform="translate(-718.69 -21.84)" style="fill: #fff"/>
      </g>
    </g>
  </g>
</svg>
