<svg xmlns="http://www.w3.org/2000/svg" xmlns:xlink="http://www.w3.org/1999/xlink" viewBox="0 0 28.02 27.98">
  <defs>
    <radialGradient id="e3ab252e-b79c-4e4d-aa9e-d892a164eb99" cx="777.92" cy="24.63" r="14" gradientTransform="translate(0 15.99) scale(1 0.85)" gradientUnits="userSpaceOnUse">
      <stop offset="0" stop-color="#5f0100"/>
      <stop offset="1" stop-color="#3d0100"/>
    </radialGradient>
    <radialGradient id="b924c8c1-1e15-41ee-a0a6-47280324b9d8" cx="777.91" cy="21.1" r="14" gradientTransform="translate(-763.91 -5.85) scale(1 0.85)" gradientUnits="userSpaceOnUse">
      <stop offset="0" stop-color="#b50200"/>
      <stop offset="1" stop-color="#740100"/>
    </radialGradient>
  </defs>
  <title>red-chip-horizontal</title>
  <g style="isolation: isolate">
    <g id="73715f8d-d18f-4898-868c-a85a7ebce535" data-name="Red Chip">
      <g>
        <g style="opacity: 0.5;mix-blend-mode: multiply">
          <path d="M791.91,37.93c0,6.57-6.27,11.9-14,11.9s-14-5.33-14-11.9c0-.2,0-2.2,0-2.4,0.37-6.29,6.49-9.5,14-9.5,7.27,0,13.32,3,14,9.08C792,35.48,791.91,37.54,791.91,37.93Z" transform="translate(-763.91 -21.84)"/>
        </g>
        <path d="M791.91,36.93c0,6.57-6.27,11.9-14,11.9s-14-5.33-14-11.9c0-.2,0-2.2,0-2.4,0.37-6.29,6.49-9.5,14-9.5,7.27,0,13.32,3,14,9.08C792,34.48,791.91,36.54,791.91,36.93Z" transform="translate(-763.91 -21.84)" style="fill: url(#e3ab252e-b79c-4e4d-aa9e-d892a164eb99)"/>
      </g>
      <path d="M777.91,29.28c-5,0-9,3.43-9,7.65s4,7.65,9,7.65,9-3.43,9-7.65S782.87,29.28,777.91,29.28Z" transform="translate(-763.91 -21.84)" style="fill: none;stroke: #000;stroke-miterlimit: 10;opacity: 0.3"/>
      <path d="M777.91,28.53a11.86,11.86,0,0,1,2.05.17l1.14-3.48a13.66,13.66,0,0,0-6.39,0l1.14,3.48A11.07,11.07,0,0,1,777.91,28.53Z" transform="translate(-763.91 -21.84)" style="fill: #fff"/>
      <path d="M769.36,32.73a8.8,8.8,0,0,1,1.2-1.43l-3-2.58a10.54,10.54,0,0,0-2,2.16,9.32,9.32,0,0,0-1.21,2.54l4.12,0.9A7.51,7.51,0,0,1,769.36,32.73Z" transform="translate(-763.91 -21.84)" style="fill: #fff"/>
      <path d="M765.55,39.69a15.86,15.86,0,0,1-1.17-2.27v3A9.32,9.32,0,0,0,765.6,43a10.54,10.54,0,0,0,2,2.16v-3A23.74,23.74,0,0,1,765.55,39.69Z" transform="translate(-763.91 -21.84)" style="fill: #d1d1d1"/>
      <path d="M777.88,45.8a28.22,28.22,0,0,1-3.17-.17v2.9a14,14,0,0,0,3.21.3,13.56,13.56,0,0,0,3.16-.3l0-2.9A27.47,27.47,0,0,1,777.88,45.8Z" transform="translate(-763.91 -21.84)" style="fill: #d1d1d1"/>
      <path d="M790.18,39.65a25.06,25.06,0,0,1-1.94,2.48v3a10.54,10.54,0,0,0,2-2.16,9.32,9.32,0,0,0,1.21-2.54v-3A15.05,15.05,0,0,1,790.18,39.65Z" transform="translate(-763.91 -21.84)" style="fill: #d1d1d1"/>
      <path d="M786.46,32.73a8.05,8.05,0,0,1,.85,1.6l4.12-.9a9.32,9.32,0,0,0-1.21-2.54,10.54,10.54,0,0,0-2-2.16l-3,2.58A8.21,8.21,0,0,1,786.46,32.73Z" transform="translate(-763.91 -21.84)" style="fill: #fff"/>
      <g id="63ad41fc-68af-445f-88a9-4214e4cb6e32" data-name="Chips copy 4">
        <ellipse cx="14" cy="12.08" rx="14" ry="11.9" style="fill: url(#b924c8c1-1e15-41ee-a0a6-47280324b9d8)"/>
        <path d="M777.91,26.28c-5,0-9,3.43-9,7.65s4,7.65,9,7.65,9-3.43,9-7.65S782.87,26.28,777.91,26.28Z" transform="translate(-763.91 -21.84)" style="fill: none;stroke: #000;stroke-miterlimit: 10;opacity: 0.3"/>
        <path d="M777.91,25.53a11.86,11.86,0,0,1,2.05.17l1.14-3.48a13.66,13.66,0,0,0-6.39,0l1.14,3.48A11.07,11.07,0,0,1,777.91,25.53Z" transform="translate(-763.91 -21.84)" style="fill: #fff"/>
        <path d="M769.36,29.73a8.8,8.8,0,0,1,1.2-1.43l-3-2.58a10.54,10.54,0,0,0-2,2.16,9.32,9.32,0,0,0-1.21,2.54l4.12,0.9A7.51,7.51,0,0,1,769.36,29.73Z" transform="translate(-763.91 -21.84)" style="fill: #fff"/>
        <path d="M769.36,38.12a8.05,8.05,0,0,1-.85-1.6l-4.12.9A9.32,9.32,0,0,0,765.6,40a10.54,10.54,0,0,0,2,2.16l3-2.58A8.21,8.21,0,0,1,769.36,38.12Z" transform="translate(-763.91 -21.84)" style="fill: #fff"/>
        <path d="M777.91,42.32a11.86,11.86,0,0,1-2.05-.17l-1.14,3.48a13.66,13.66,0,0,0,6.39,0L780,42.15A11.07,11.07,0,0,1,777.91,42.32Z" transform="translate(-763.91 -21.84)" style="fill: #fff"/>
        <path d="M786.46,38.12a8.8,8.8,0,0,1-1.2,1.43l3,2.58a10.54,10.54,0,0,0,2-2.16,9.32,9.32,0,0,0,1.21-2.54l-4.12-.9A7.51,7.51,0,0,1,786.46,38.12Z" transform="translate(-763.91 -21.84)" style="fill: #fff"/>
        <path d="M786.46,29.73a8.05,8.05,0,0,1,.85,1.6l4.12-.9a9.32,9.32,0,0,0-1.21-2.54,10.54,10.54,0,0,0-2-2.16l-3,2.58A8.21,8.21,0,0,1,786.46,29.73Z" transform="translate(-763.91 -21.84)" style="fill: #fff"/>
      </g>
    </g>
  </g>
</svg>
