<svg xmlns="http://www.w3.org/2000/svg" xmlns:xlink="http://www.w3.org/1999/xlink" viewBox="0 0 28.1 27.85">
  <defs>
    <radialGradient id="bdb3b8e6-d59e-4ce5-86cd-0776262c3f53" cx="633.29" cy="-102.43" r="14" gradientTransform="matrix(1, 0, 0, -0.85, 0, 164.84)" gradientUnits="userSpaceOnUse">
      <stop offset="0" stop-color="#5f0100"/>
      <stop offset="1" stop-color="#3d0100"/>
    </radialGradient>
    <radialGradient id="bd2a924b-e25b-43e1-8185-527b592f2ea4" cx="633.28" cy="-105.96" r="14" gradientTransform="matrix(1, 0, 0, -1, -619.23, -91.06)" gradientUnits="userSpaceOnUse">
      <stop offset="0" stop-color="#b50200"/>
      <stop offset="1" stop-color="#740100"/>
    </radialGradient>
  </defs>
  <title>red-chip-vertical</title>
  <g style="isolation: isolate">
    <g id="95745847-5559-435d-a402-6956be103c1b" data-name="Rack chips">
      <g id="396e5ee3-df37-423b-a7fe-67ce16e96304" data-name="Red Chips 1">
        <g id="9f27637c-aff4-47b7-8f3a-621ae821e1d3" data-name="Red Chip top">
          <g>
            <g style="opacity: 0.5;mix-blend-mode: multiply">
              <path d="M647.28,252.9c0-6.57-6.27-11.9-14-11.9s-14,5.33-14,11.9c0,0.2,0,2.2,0,2.4,0.37,6.29,6.49,9.5,14,9.5,7.27,0,13.32-3,14-9.08C647.32,255.34,647.28,253.29,647.28,252.9Z" transform="translate(-619.23 -240)"/>
            </g>
            <path d="M647.28,251.9c0-6.57-6.27-11.9-14-11.9s-14,5.33-14,11.9c0,0.2,0,2.2,0,2.4,0.37,6.29,6.49,9.5,14,9.5,7.27,0,13.32-3,14-9.08C647.32,254.34,647.28,252.29,647.28,251.9Z" transform="translate(-619.23 -240)" style="fill: url(#bdb3b8e6-d59e-4ce5-86cd-0776262c3f53)"/>
          </g>
          <path d="M633.28,259.55c-5,0-9-3.43-9-7.65s4-7.65,9-7.65,9,3.43,9,7.65S638.24,259.55,633.28,259.55Z" transform="translate(-619.23 -240)" style="fill: none;stroke: #000;stroke-miterlimit: 10;opacity: 0.3"/>
          <path d="M633.28,260.29a11.86,11.86,0,0,0,2.05-.17l1.14,3.48a13.66,13.66,0,0,1-6.39,0l1.14-3.48A11.07,11.07,0,0,0,633.28,260.29Z" transform="translate(-619.23 -240)" style="fill: #fff"/>
          <path d="M624.73,256.1a8.8,8.8,0,0,0,1.2,1.43l-3,2.58a10.54,10.54,0,0,1-2-2.16,9.32,9.32,0,0,1-1.21-2.54l4.12-.9A7.51,7.51,0,0,0,624.73,256.1Z" transform="translate(-619.23 -240)" style="fill: #fff"/>
          <path d="M620.92,249.13a15.86,15.86,0,0,0-1.17,2.27v-3a9.32,9.32,0,0,1,1.21-2.54,10.54,10.54,0,0,1,2-2.16v3A23.74,23.74,0,0,0,620.92,249.13Z" transform="translate(-619.23 -240)" style="fill: #d1d1d1"/>
          <path d="M633.25,243a28.22,28.22,0,0,0-3.17.17v-2.9a14,14,0,0,1,3.21-.3,13.56,13.56,0,0,1,3.16.3l0,2.9A27.47,27.47,0,0,0,633.25,243Z" transform="translate(-619.23 -240)" style="fill: #d1d1d1"/>
          <path d="M645.55,249.18a25.06,25.06,0,0,0-1.94-2.48v-3a10.54,10.54,0,0,1,2,2.16,9.32,9.32,0,0,1,1.21,2.54v3A15.05,15.05,0,0,0,645.55,249.18Z" transform="translate(-619.23 -240)" style="fill: #d1d1d1"/>
          <path d="M641.83,256.1a8.05,8.05,0,0,0,.85-1.6l4.12,0.9a9.32,9.32,0,0,1-1.21,2.54,10.54,10.54,0,0,1-2,2.16l-3-2.58A8.21,8.21,0,0,0,641.83,256.1Z" transform="translate(-619.23 -240)" style="fill: #fff"/>
          <g id="3f389d67-8acf-49b0-ae8b-a6a6ddc06d8b" data-name="Chips copy 9">
            <g>
              <g style="opacity: 0.5">
                <ellipse cx="14.05" cy="15.9" rx="14" ry="11.9"/>
                <ellipse cx="14.05" cy="15.9" rx="14" ry="11.9" style="fill: none;stroke: #000;stroke-miterlimit: 10;stroke-width: 0.10000000149011612px"/>
              </g>
              <g>
                <ellipse cx="14.05" cy="14.9" rx="14" ry="11.9" style="fill: url(#bd2a924b-e25b-43e1-8185-527b592f2ea4)"/>
                <ellipse cx="14.05" cy="14.9" rx="14" ry="11.9" style="fill: none;stroke: #fff;stroke-miterlimit: 10;stroke-width: 0.10000000149011612px"/>
              </g>
            </g>
            <path d="M633.28,262.55c-5,0-9-3.43-9-7.65s4-7.65,9-7.65,9,3.43,9,7.65S638.24,262.55,633.28,262.55Z" transform="translate(-619.23 -240)" style="fill: none;stroke: #000;stroke-miterlimit: 10;opacity: 0.3"/>
            <path d="M633.28,263.29a11.86,11.86,0,0,0,2.05-.17l1.14,3.48a13.66,13.66,0,0,1-6.39,0l1.14-3.48A11.07,11.07,0,0,0,633.28,263.29Z" transform="translate(-619.23 -240)" style="fill: #fff"/>
            <path d="M624.73,259.1a8.8,8.8,0,0,0,1.2,1.43l-3,2.58a10.54,10.54,0,0,1-2-2.16,9.32,9.32,0,0,1-1.21-2.54l4.12-.9A7.51,7.51,0,0,0,624.73,259.1Z" transform="translate(-619.23 -240)" style="fill: #fff"/>
            <path d="M624.73,250.7a8.05,8.05,0,0,0-.85,1.6l-4.12-.9a9.32,9.32,0,0,1,1.21-2.54,10.54,10.54,0,0,1,2-2.16l3,2.58A8.21,8.21,0,0,0,624.73,250.7Z" transform="translate(-619.23 -240)" style="fill: #fff"/>
            <path d="M633.28,246.51a11.86,11.86,0,0,0-2.05.17l-1.14-3.48a13.66,13.66,0,0,1,6.39,0l-1.14,3.48A11.07,11.07,0,0,0,633.28,246.51Z" transform="translate(-619.23 -240)" style="fill: #fff"/>
            <path d="M641.83,250.7a8.8,8.8,0,0,0-1.2-1.43l3-2.58a10.54,10.54,0,0,1,2,2.16,9.32,9.32,0,0,1,1.21,2.54l-4.12.9A7.51,7.51,0,0,0,641.83,250.7Z" transform="translate(-619.23 -240)" style="fill: #fff"/>
            <path d="M641.83,259.1a8.05,8.05,0,0,0,.85-1.6l4.12,0.9a9.32,9.32,0,0,1-1.21,2.54,10.54,10.54,0,0,1-2,2.16l-3-2.58A8.21,8.21,0,0,0,641.83,259.1Z" transform="translate(-619.23 -240)" style="fill: #fff"/>
          </g>
        </g>
      </g>
    </g>
  </g>
</svg>
